<svg id="Capa_1" enable-background="new 0 0 512 512" height="512" viewBox="0 0 512 512" width="512" xmlns="http://www.w3.org/2000/svg"><g><g><g><path d="m429.712 93.287-27.338 7.966v-59.149l27.338 7.966c4.303 1.254 7.261 5.197 7.261 9.679v23.859c0 4.481-2.959 8.425-7.261 9.679z" fill="#31a7fb"/></g><g><path d="m429.712 148.065-27.338 7.966v-59.149l27.338 7.966c4.303 1.254 7.261 5.197 7.261 9.679v23.859c0 4.482-2.959 8.425-7.261 9.679z" fill="#fca62f"/></g><g><path d="m429.712 202.843-27.338 7.966v-59.149l27.338 7.966c4.303 1.254 7.261 5.197 7.261 9.679v23.859c0 4.482-2.959 8.425-7.261 9.679z" fill="#fb4a59"/></g><g><g><path d="m405.973 24.123v306.056l-41.294 41.294h-222.873l-41.294-41.294v-306.056c0-9.184 7.45-16.624 16.635-16.624h272.202c9.174 0 16.624 7.44 16.624 16.624z" fill="#27e19d"/><path d="m284.791 172.62h-57.585s-41.31-4.843-42.984 71.859c-.074 3.388 1.582 6.568 4.353 8.518 8.067 5.679 28.117 15.979 67.423 15.979 39.307 0 59.356-10.3 67.424-15.979 2.771-1.951 4.427-5.131 4.353-8.518-1.674-76.702-42.984-71.859-42.984-71.859z" fill="#1ec186"/><g><g><path d="m133.338 64.208c0 12.088-9.83 21.917-21.907 21.917h-10.918v-15.122h10.918c3.74 0 6.785-3.045 6.785-6.795 0-4.174 3.387-7.561 7.561-7.561s7.561 3.387 7.561 7.561z" fill="#1ec186"/></g><g><path d="m133.338 112.639c0 12.078-9.83 21.907-21.907 21.907h-10.918v-15.122h10.918c3.74 0 6.785-3.045 6.785-6.785 0-4.184 3.387-7.561 7.561-7.561s7.561 3.377 7.561 7.561z" fill="#1ec186"/></g><g><path d="m133.338 161.061c0 12.088-9.83 21.917-21.907 21.917h-10.918v-15.122h10.918c3.74 0 6.785-3.045 6.785-6.795 0-4.174 3.387-7.561 7.561-7.561s7.561 3.387 7.561 7.561z" fill="#1ec186"/></g><g><path d="m133.338 209.493c0 12.078-9.83 21.907-21.907 21.907h-10.918v-15.122h10.918c3.74 0 6.785-3.045 6.785-6.785 0-4.184 3.387-7.561 7.561-7.561s7.561 3.377 7.561 7.561z" fill="#1ec186"/></g><g><path d="m133.338 257.915c0 12.088-9.83 21.917-21.907 21.917h-10.918v-15.122h10.918c3.74 0 6.785-3.055 6.785-6.795 0-4.174 3.387-7.561 7.561-7.561s7.561 3.387 7.561 7.561z" fill="#1ec186"/></g></g><path d="m373.331 24.124v285.432h32.644v-285.432c0-9.184-7.45-16.624-16.625-16.624h-32.644c9.174 0 16.625 7.44 16.625 16.624z" fill="#1ec186"/></g><g><path d="m466.433 307.071v71.554c0 11.848-9.595 21.443-21.432 21.443h-377.993c-11.837 0-21.443-9.595-21.443-21.443v-71.554c0-11.837 9.606-21.432 21.443-21.432h377.993c11.837 0 21.432 9.595 21.432 21.432z" fill="#fcc16d"/><path d="m466.433 307.071v71.554c0 11.848-9.595 21.443-21.432 21.443h-32.488c11.837 0 21.443-9.595 21.443-21.443v-71.554c0-11.837-9.606-21.432-21.443-21.432h32.488c11.837 0 21.432 9.595 21.432 21.432z" fill="#fca62f"/></g></g><g><g><path d="m459.087 408.549c7.453 0 13.495-6.042 13.495-13.495s-6.042-13.495-13.495-13.495h-59.228c-7.453 0-13.495 6.042-13.495 13.495v95.949c0 7.453 6.042 13.495 13.495 13.495h59.228c7.453 0 13.495-6.042 13.495-13.495s-6.042-13.495-13.495-13.495h-45.733v-20.986h32.725c7.453 0 13.495-6.042 13.495-13.495s-6.042-13.495-13.495-13.495h-32.725v-20.984h45.733z" fill="#27e19d"/><g fill="#1ec186"><path d="m472.582 395.055c0 7.45-6.039 13.489-13.499 13.489h-21.433c7.46 0 13.499-6.039 13.499-13.489s-6.039-13.499-13.499-13.499h21.433c7.46 0 13.499 6.049 13.499 13.499z"/><path d="m459.577 443.023c0 7.46-6.049 13.499-13.499 13.499h-21.433c7.45 0 13.499-6.039 13.499-13.499 0-7.45-6.049-13.489-13.499-13.489h21.433c7.45 0 13.499 6.039 13.499 13.489z"/><path d="m472.582 491.001c0 7.45-6.039 13.499-13.499 13.499h-21.433c7.46 0 13.499-6.049 13.499-13.499s-6.039-13.489-13.499-13.489h21.433c7.46 0 13.499 6.039 13.499 13.489z"/></g><path d="m228.802 408.549c7.453 0 13.495-6.042 13.495-13.495s-6.042-13.495-13.495-13.495h-59.228c-7.453 0-13.495 6.042-13.495 13.495v95.949c0 7.453 6.042 13.495 13.495 13.495h59.228c7.453 0 13.495-6.042 13.495-13.495s-6.042-13.495-13.495-13.495h-45.733v-20.986h32.725c7.453 0 13.495-6.042 13.495-13.495s-6.042-13.495-13.495-13.495h-32.725v-20.984h45.733z" fill="#27e19d"/><path d="m229.284 443.023c0 7.46-6.039 13.499-13.489 13.499h-21.565c7.45 0 13.499-6.039 13.499-13.499 0-7.45-6.049-13.489-13.499-13.489h21.564c7.451 0 13.49 6.039 13.49 13.489z" fill="#1ec186"/><path d="m242.299 395.055c0 7.45-6.049 13.489-13.499 13.489h-21.564c7.46 0 13.499-6.039 13.499-13.489s-6.039-13.499-13.499-13.499h21.564c7.45 0 13.499 6.049 13.499 13.499z" fill="#1ec186"/><path d="m242.299 491.001c0 7.45-6.049 13.499-13.499 13.499h-21.564c7.46 0 13.499-6.049 13.499-13.499s-6.039-13.489-13.499-13.489h21.564c7.45 0 13.499 6.039 13.499 13.489z" fill="#1ec186"/><path d="m112.141 381.559c-7.453 0-13.495 6.042-13.495 13.495v34.479h-32.239v-34.479c0-7.453-6.042-13.495-13.495-13.495s-13.495 6.042-13.495 13.495v95.949c0 7.453 6.042 13.495 13.495 13.495s13.495-6.042 13.495-13.495v-34.481h32.239v34.481c0 7.453 6.042 13.495 13.495 13.495s13.495-6.042 13.495-13.495v-95.949c-.001-7.453-6.042-13.495-13.495-13.495z" fill="#27e19d"/><path d="m125.635 395.055v95.946c0 7.45-6.039 13.499-13.499 13.499-3.912 0-7.44-1.674-9.9-4.335 2.228-2.41 3.589-5.636 3.589-9.164v-95.946c0-3.539-1.361-6.755-3.589-9.164 2.46-2.662 5.988-4.335 9.9-4.335 7.46 0 13.499 6.049 13.499 13.499z" fill="#1ec186"/><path d="m337.267 457.859c11.832-7.238 19.746-20.28 19.746-35.137 0-22.697-18.466-41.163-41.163-41.163h-31.56c-7.453 0-13.495 6.042-13.495 13.495v95.949c0 7.453 6.042 13.495 13.495 13.495s13.495-6.042 13.495-13.495v-27.119h10.93l23.651 34.716c2.612 3.836 6.851 5.9 11.165 5.9 2.616 0 5.26-.76 7.586-2.344 6.159-4.197 7.751-12.591 3.555-18.75zm-39.483-49.31h18.065c7.816 0 14.174 6.358 14.174 14.174 0 7.814-6.358 14.172-14.174 14.172h-.027c-.023 0-.045 0-.068 0h-17.969v-28.346z" fill="#27e19d"/><path d="m354.668 483.41c4.194 6.16 2.611 14.548-3.549 18.742-2.329 1.593-4.97 2.349-7.591 2.349-4.093 0-8.106-1.855-10.737-5.313 3.448-4.577 3.619-11.12.232-16.1l-13.469-19.76c-1.986-2.914-1.381-6.825 1.311-9.094 9.134-7.672 14.89-19.226 14.709-32.1-.323-22.623-19.236-40.578-41.859-40.578h22.129c22.704 0 41.173 18.469 41.173 41.163 0 14.86-7.914 27.906-19.75 35.144z" fill="#1ec186"/></g></g><g><g><g><path d="m284.791 154.528h-57.585s-41.31-4.843-42.984 71.859c-.074 3.388 1.582 6.568 4.353 8.518 8.067 5.679 28.117 15.979 67.423 15.979 39.307 0 59.356-10.3 67.424-15.979 2.771-1.951 4.427-5.131 4.353-8.518-1.674-76.702-42.984-71.859-42.984-71.859z" fill="#fcb44d"/><g fill="#fb9927"><path d="m327.778 226.386c.071 3.387-1.583 6.573-4.355 8.519-8.065 5.676-28.117 15.979-67.425 15.979-5.323 0-10.293-.192-14.921-.534 29.6-2.168 45.528-10.535 52.515-15.445 2.762-1.946 4.426-5.132 4.345-8.519-1.391-63.847-30.255-71.196-39.883-71.861h26.736c.001-.001 41.315-4.84 42.988 71.861z"/><path d="m300.145 158.093c-7.45 16.977-24.418 28.843-44.147 28.843-19.73 0-36.697-11.866-44.147-28.843 8.358-4.386 15.354-3.569 15.354-3.569h57.586s6.996-.816 15.354 3.569z"/></g></g><g><circle cx="255.998" cy="119.448" fill="#ba5d4f" r="48.198"/><path d="m304.2 119.446c0 26.624-21.577 48.201-48.201 48.201-26.33 0-47.721-21.097-48.191-47.309 4.733 17.324 20.578 30.053 39.402 30.053 22.557 0 40.852-18.295 40.852-40.852 0-17.109-10.524-31.768-25.458-37.834 23.497 3.215 41.596 23.371 41.596 47.741z" fill="#a34f41"/></g></g></g></g><g><path d="m459.087 470.009h-38.234v-5.986h25.225c11.577 0 20.995-9.418 20.995-20.995 0-11.576-9.418-20.994-20.995-20.994h-25.225v-5.984h38.234c11.577 0 20.995-9.418 20.995-20.994 0-5.805-2.37-11.066-6.19-14.87.028-.517.043-1.035.043-1.554v-71.558c0-15.956-12.981-28.938-28.938-28.938h-31.522v-62.749l18.335-5.342c7.456-2.173 12.663-9.114 12.663-16.88v-23.858c0-6.514-3.67-12.434-9.249-15.46 5.579-3.027 9.249-8.947 9.249-15.459v-23.859c0-6.513-3.67-12.433-9.25-15.46 5.58-3.027 9.25-8.947 9.25-15.46v-23.86c0-7.766-5.207-14.707-12.663-16.88l-18.335-5.342v-13.403c0-13.302-10.822-24.124-24.124-24.124h-53.691c-4.142 0-7.5 3.357-7.5 7.5s3.358 7.5 7.5 7.5h53.691c5.031 0 9.124 4.093 9.124 9.124v254.011h-189.66c-4.142 0-7.5 3.357-7.5 7.5s3.358 7.5 7.5 7.5h236.183c7.686 0 13.938 6.252 13.938 13.938v66.987h-59.076c-10.734 0-19.598 8.101-20.834 18.509h-25.024c-8.921-11.263-22.702-18.509-38.152-18.509h-31.56c-10.734 0-19.598 8.101-20.834 18.509h-13.82c-1.236-10.407-10.1-18.509-20.834-18.509h-59.228c-10.734 0-19.598 8.101-20.834 18.509h-15.766c-1.236-10.407-10.1-18.509-20.834-18.509s-19.598 8.101-20.834 18.509h-17.56c-1.23-10.356-10.015-18.422-20.678-18.501v-66.994c0-7.686 6.252-13.938 13.938-13.938h104.782c4.142 0 7.5-3.357 7.5-7.5s-3.358-7.5-7.5-7.5h-63.774v-11.369h3.414c12.048 0 21.851-9.802 21.851-21.851 0-4.143-3.358-7.5-7.5-7.5s-7.5 3.357-7.5 7.5c0 3.777-3.073 6.851-6.851 6.851h-3.414v-33.427h3.414c12.048 0 21.851-9.802 21.851-21.851 0-4.143-3.358-7.5-7.5-7.5s-7.5 3.357-7.5 7.5c0 3.777-3.073 6.851-6.851 6.851h-3.414v-33.427h3.414c12.048 0 21.851-9.802 21.851-21.851 0-4.143-3.358-7.5-7.5-7.5s-7.5 3.357-7.5 7.5c0 3.777-3.073 6.851-6.851 6.851h-3.414v-33.427h3.414c12.048 0 21.851-9.802 21.851-21.851 0-4.143-3.358-7.5-7.5-7.5s-7.5 3.357-7.5 7.5c0 3.777-3.073 6.851-6.851 6.851h-3.414v-33.426h3.414c12.048 0 21.851-9.802 21.851-21.851 0-4.143-3.358-7.5-7.5-7.5s-7.5 3.357-7.5 7.5c0 3.777-3.073 6.851-6.851 6.851h-3.414v-33.936c0-5.031 4.098-9.124 9.134-9.124h181.486c4.142 0 7.5-3.357 7.5-7.5s-3.358-7.5-7.5-7.5h-181.486c-13.308 0-24.134 10.822-24.134 24.124v5.234h-2.406c-12.048 0-21.851 9.802-21.851 21.851s9.802 21.851 21.85 21.851h2.406v4.726h-2.406c-12.048 0-21.851 9.802-21.851 21.85 0 12.049 9.802 21.851 21.851 21.851h2.406v4.726h-2.406c-12.048 0-21.851 9.802-21.851 21.851s9.802 21.851 21.851 21.851h2.406v4.726h-2.406c-12.048 0-21.851 9.802-21.851 21.851s9.802 21.851 21.851 21.851h2.406v4.725h-2.406c-12.048 0-21.851 9.802-21.851 21.851s9.802 21.851 21.851 21.851h2.406v11.369h-26.007c-15.956 0-28.938 12.981-28.938 28.938v71.558c0 .514.025 1.029.052 1.543-3.828 3.805-6.202 9.07-6.202 14.881v95.949c0 11.577 9.418 20.995 20.995 20.995s20.995-9.418 20.995-20.995v-26.981h17.238v26.981c0 11.577 9.418 20.995 20.995 20.995s20.995-9.418 20.995-20.995v-83.435h15.444v83.435c0 11.577 9.418 20.995 20.995 20.995h59.228c11.577 0 20.995-9.418 20.995-20.995 0-11.576-9.418-20.994-20.995-20.994h-38.233v-5.986h25.225c11.577 0 20.995-9.418 20.995-20.995 0-11.576-9.418-20.994-20.995-20.994h-25.225v-5.984h38.233c6.885 0 12.987-3.346 16.818-8.48h17.675v83.435c0 11.577 9.418 20.995 20.995 20.995s20.995-9.418 20.995-20.995v-18.832l20.881 30.651c3.914 5.747 10.405 9.179 17.364 9.179 4.222 0 8.304-1.26 11.81-3.646 9.565-6.519 12.046-19.605 5.53-29.17l-13.318-19.549c10.738-9.176 16.962-22.494 16.962-36.912 0-5.291-.86-10.382-2.429-15.154h16.78v6.984c0 4.143 3.358 7.5 7.5 7.5s7.5-3.357 7.5-7.5v-19.498c0-3.306 2.689-5.995 5.995-5.995h59.228c3.306 0 5.995 2.689 5.995 5.995 0 3.305-2.689 5.994-5.995 5.994h-45.734c-4.142 0-7.5 3.357-7.5 7.5v20.984c0 4.143 3.358 7.5 7.5 7.5h32.725c3.306 0 5.995 2.688 5.995 5.994s-2.689 5.995-5.995 5.995h-32.725c-4.142 0-7.5 3.357-7.5 7.5v20.986c0 4.143 3.358 7.5 7.5 7.5h45.734c3.306 0 5.995 2.688 5.995 5.994s-2.689 5.995-5.995 5.995h-59.228c-3.306 0-5.995-2.689-5.995-5.995v-39.424c0-4.143-3.358-7.5-7.5-7.5s-7.5 3.357-7.5 7.5v39.424c0 11.577 9.418 20.995 20.995 20.995h59.228c11.577 0 20.995-9.418 20.995-20.995-.002-11.583-9.42-21.001-20.997-21.001zm-29.614-331.623c0 1.14-.765 2.159-1.859 2.479l-14.139 4.12v-37.057l14.139 4.12c1.095.319 1.859 1.339 1.859 2.479zm0 54.778c0 1.141-.765 2.16-1.859 2.48l-14.139 4.119v-37.056l14.14 4.121c1.094.318 1.858 1.337 1.858 2.478zm-1.86-135.894c1.095.319 1.859 1.339 1.859 2.48v23.858c0 1.14-.765 2.159-1.859 2.479l-14.139 4.12v-37.057zm-337.006.79c-3.777 0-6.851-3.073-6.851-6.851s3.073-6.851 6.851-6.851h2.406v13.702zm0 48.426c-3.777 0-6.851-3.073-6.851-6.851s3.073-6.85 6.851-6.85h2.406v13.7h-2.406zm0 48.427c-3.777 0-6.851-3.073-6.851-6.851s3.073-6.851 6.851-6.851h2.406v13.701h-2.406zm0 48.427c-3.777 0-6.851-3.073-6.851-6.851s3.073-6.851 6.851-6.851h2.406v13.701h-2.406zm0 48.426c-3.777 0-6.851-3.073-6.851-6.851s3.073-6.851 6.851-6.851h2.406v13.701h-2.406zm-16.699 155.802h17.238v14.465h-17.238zm44.227 83.435c0 3.306-2.689 5.995-5.995 5.995s-5.995-2.689-5.995-5.995v-34.481c0-4.143-3.358-7.5-7.5-7.5h-32.238c-4.142 0-7.5 3.357-7.5 7.5v34.481c0 3.306-2.689 5.995-5.995 5.995s-5.995-2.689-5.995-5.995v-95.949c0-3.306 2.689-5.995 5.995-5.995s5.995 2.689 5.995 5.995v34.479c0 4.143 3.358 7.5 7.5 7.5h32.238c4.142 0 7.5-3.357 7.5-7.5v-34.479c0-3.306 2.689-5.995 5.995-5.995s5.995 2.689 5.995 5.995zm110.667-89.955h-45.733c-4.142 0-7.5 3.357-7.5 7.5v20.984c0 4.143 3.358 7.5 7.5 7.5h32.725c3.306 0 5.995 2.688 5.995 5.994s-2.689 5.995-5.995 5.995h-32.725c-4.142 0-7.5 3.357-7.5 7.5v20.986c0 4.143 3.358 7.5 7.5 7.5h45.733c3.306 0 5.995 2.688 5.995 5.994s-2.689 5.995-5.995 5.995h-59.228c-3.306 0-5.995-2.689-5.995-5.995v-95.949c0-3.306 2.689-5.995 5.995-5.995h59.228c3.306 0 5.995 2.689 5.995 5.995 0 3.307-2.69 5.996-5.995 5.996zm104.55 50.414c-1.751 1.071-2.986 2.814-3.418 4.82-.432 2.007-.021 4.104 1.134 5.8l17.404 25.547c1.86 2.731 1.151 6.468-1.577 8.327-1.003.683-2.167 1.044-3.366 1.044-1.992 0-3.848-.98-4.967-2.623l-23.65-34.716c-1.397-2.051-3.717-3.277-6.198-3.277h-10.93c-4.142 0-7.5 3.357-7.5 7.5v27.119c0 3.306-2.689 5.995-5.995 5.995s-5.995-2.689-5.995-5.995v-95.949c0-3.306 2.689-5.995 5.995-5.995h31.559c18.562 0 33.664 15.102 33.664 33.663.001 11.806-6.04 22.549-16.16 28.74z"/><path d="m315.849 401.048h-18.065c-4.142 0-7.5 3.357-7.5 7.5v28.346c0 4.143 3.358 7.5 7.5 7.5h18.065c11.951 0 21.674-9.722 21.674-21.672 0-11.951-9.723-21.674-21.674-21.674zm-.095 28.346h-10.469v-13.346h10.564c3.68 0 6.674 2.994 6.674 6.674 0 3.679-2.994 6.672-6.769 6.672z"/><path d="m376.766 203.867v-154.821c0-4.143-3.358-7.5-7.5-7.5s-7.5 3.357-7.5 7.5v154.821c0 4.143 3.358 7.5 7.5 7.5s7.5-3.357 7.5-7.5z"/><path d="m255.999 63.75c-30.712 0-55.698 24.985-55.698 55.697 0 11.567 3.547 22.321 9.607 31.235-14.114 6.652-32.081 25.059-33.183 75.541-.128 5.864 2.688 11.402 7.534 14.814 9.203 6.479 30.762 17.347 71.74 17.347 40.979 0 62.537-10.868 71.741-17.348 4.846-3.411 7.662-8.95 7.533-14.814-1.102-50.482-19.075-68.888-33.184-75.539 6.06-8.914 9.608-19.668 9.608-31.236 0-30.711-24.986-55.697-55.698-55.697zm0 15c22.441 0 40.698 18.257 40.698 40.697 0 22.441-18.257 40.698-40.698 40.698s-40.699-18.256-40.699-40.697 18.258-40.698 40.699-40.698zm64.278 147.801c.019.861-.42 1.691-1.172 2.222-6.242 4.394-24.885 14.612-63.107 14.612-38.221 0-56.864-10.219-63.105-14.611-.753-.53-1.191-1.361-1.173-2.223 1.092-50.022 19.2-61.447 29.133-63.932 9.594 7.825 21.829 12.528 35.145 12.528s25.552-4.703 35.145-12.527c9.926 2.483 28.042 13.905 29.134 63.931z"/><path d="m237.463 132.422c-2.68 3.158-2.292 7.892.866 10.571 4.532 3.845 10.517 5.963 16.853 5.963s12.321-2.118 16.853-5.963c3.158-2.68 3.546-7.413.866-10.571-2.681-3.158-7.413-3.547-10.571-.866-1.798 1.525-4.403 2.4-7.147 2.4-2.745 0-5.35-.875-7.147-2.4-3.16-2.68-7.893-2.291-10.573.866z"/><path d="m232.823 121.019c4.142 0 7.5-3.357 7.5-7.5s-3.358-7.5-7.5-7.5h-.073c-4.142 0-7.463 3.357-7.463 7.5s3.394 7.5 7.536 7.5z"/><path d="m279.239 121.019h.004s.003 0 .004 0c4.142 0 7.5-3.357 7.5-7.5s-3.358-7.5-7.5-7.5h-.009-.065-.008c-4.142 0-7.463 3.357-7.463 7.5s3.395 7.5 7.537 7.5z"/><path d="m414.54 366.395c4.142 0 7.5-3.357 7.5-7.5v-31.917h4.666c4.142 0 7.5-3.357 7.5-7.5s-3.358-7.5-7.5-7.5h-24.332c-4.142 0-7.5 3.357-7.5 7.5s3.358 7.5 7.5 7.5h4.666v31.917c0 4.143 3.358 7.5 7.5 7.5z"/><path d="m255.776 366.395c4.142 0 7.5-3.357 7.5-7.5v-31.917h4.666c4.142 0 7.5-3.357 7.5-7.5s-3.358-7.5-7.5-7.5h-24.332c-4.142 0-7.5 3.357-7.5 7.5s3.358 7.5 7.5 7.5h4.666v31.917c0 4.143 3.358 7.5 7.5 7.5z"/><path d="m320.863 366.395c4.142 0 7.5-3.357 7.5-7.5v-27.251c0-10.844-8.822-19.666-19.666-19.666s-19.666 8.822-19.666 19.666v27.251c0 4.143 3.358 7.5 7.5 7.5s7.5-3.357 7.5-7.5v-7.168h9.332v7.168c0 4.143 3.358 7.5 7.5 7.5zm-16.832-29.668v-5.083c0-2.573 2.093-4.666 4.666-4.666s4.666 2.093 4.666 4.666v5.083z"/><path d="m188.641 312.263c-3.227.915-5.453 3.861-5.453 7.215v39.417c0 4.143 3.358 7.5 7.5 7.5s7.5-3.357 7.5-7.5v-12.989l10.45 16.929c1.391 2.253 3.829 3.562 6.382 3.562.68 0 1.369-.094 2.047-.286 3.227-.915 5.453-3.861 5.453-7.215v-39.417c0-4.143-3.358-7.5-7.5-7.5s-7.5 3.357-7.5 7.5v12.989l-10.45-16.929c-1.761-2.854-5.204-4.191-8.429-3.276z"/><path d="m130.267 331.644v15.085c0 10.844 8.822 19.666 19.666 19.666s19.666-8.822 19.666-19.666v-15.085c0-10.844-8.822-19.666-19.666-19.666s-19.666 8.822-19.666 19.666zm24.332 0v15.085c0 2.573-2.093 4.666-4.666 4.666s-4.666-2.093-4.666-4.666v-15.085c0-2.573 2.093-4.666 4.666-4.666 2.572 0 4.666 2.093 4.666 4.666z"/><path d="m97.238 326.977c1.247 0 2.418.483 3.295 1.361.569.569.986 1.277 1.204 2.047 1.13 3.984 5.275 6.295 9.262 5.169 3.985-1.131 6.299-5.277 5.169-9.263-.915-3.224-2.652-6.184-5.028-8.56-3.712-3.711-8.649-5.755-13.902-5.755-10.845 0-19.669 8.818-19.669 19.658v15.092c0 5.255 2.044 10.192 5.755 13.902 3.718 3.719 8.659 5.767 13.913 5.767 8.771 0 16.557-5.897 18.934-14.34 1.123-3.986-1.2-8.129-5.187-9.252-3.987-1.125-8.129 1.2-9.252 5.188-.564 2.004-2.413 3.404-4.496 3.404-1.247 0-2.421-.487-3.307-1.373-.878-.878-1.362-2.049-1.362-3.296v-15.092c.003-2.567 2.097-4.657 4.671-4.657z"/><path d="m361.846 326.977c1.247 0 2.418.483 3.296 1.362.569.568.985 1.275 1.203 2.044 1.129 3.985 5.275 6.3 9.261 5.171 3.985-1.129 6.3-5.275 5.171-9.261-.914-3.226-2.653-6.186-5.028-8.562-3.712-3.711-8.649-5.755-13.902-5.755-10.845 0-19.669 8.818-19.669 19.658v15.092c0 5.255 2.044 10.192 5.755 13.903 3.718 3.718 8.659 5.766 13.913 5.766 8.772 0 16.558-5.897 18.934-14.34 1.123-3.987-1.2-8.13-5.187-9.252-3.987-1.125-8.13 1.2-9.251 5.188-.564 2.005-2.413 3.404-4.495 3.404-1.247 0-2.421-.487-3.307-1.373-.878-.878-1.361-2.048-1.361-3.296v-15.092c-.002-2.567 2.092-4.657 4.667-4.657z"/></g></g></svg>